<svg width="14" height="24" viewBox="0 0 14 24" fill="none" xmlns="http://www.w3.org/2000/svg">
<path d="M6.33253 7.61994C5.43984 7.64059 4.498 7.75661 3.57885 8.01831C2.92692 8.20412 2.30117 8.45244 1.74142 8.84703C1.68326 8.88803 1.69227 8.90489 1.7228 8.95316C1.89553 9.2265 2.09355 9.48064 2.30698 9.72257C2.58264 10.0349 2.45092 10.4626 2.04761 10.5542C1.87459 10.5935 1.72397 10.5309 1.61056 10.4056C1.04384 9.77898 0.597779 9.07733 0.320085 8.27536C-0.0151841 7.30677 -0.0849714 6.31812 0.100837 5.31028C0.372134 3.83864 1.09676 2.62958 2.22324 1.65605C3.12262 0.878509 4.16332 0.381567 5.32527 0.144582C6.20953 -0.0357015 7.09757 -0.0473325 7.99026 0.109398C9.18944 0.319631 10.2618 0.802907 11.1979 1.57609C12.3229 2.50542 13.0792 3.68017 13.3752 5.11226C13.7547 6.94708 13.3572 8.624 12.2324 10.125C12.1647 10.2154 12.0946 10.3053 12.0196 10.3896C11.8341 10.5987 11.5334 10.6202 11.3302 10.4425C11.1278 10.2657 11.1016 9.97525 11.2755 9.76124C11.4598 9.53443 11.6288 9.29774 11.7908 9.05436C11.8646 8.94328 11.8416 8.8985 11.7387 8.83569C11.2415 8.53212 10.7134 8.29891 10.1604 8.11804C9.44474 7.88397 8.70994 7.7412 7.96206 7.66937C7.44127 7.61965 6.91787 7.59551 6.33253 7.61994ZM6.69106 2.42226C5.94405 2.43447 5.25345 2.75142 4.62537 3.22888C4.09062 3.6351 3.64021 4.12477 3.23544 4.65777C2.88709 5.11662 2.57566 5.59931 2.30378 6.10731C2.21858 6.26665 2.19154 6.42716 2.27034 6.59523C2.35496 6.77552 2.50704 6.86566 2.69808 6.86769C2.9025 6.87002 3.05079 6.7633 3.14646 6.58069C3.37094 6.1515 3.63032 5.74383 3.91761 5.35419C4.35203 4.76478 4.83967 4.22683 5.45612 3.82091C6.26653 3.28704 7.0935 3.23382 7.93822 3.74734C8.62184 4.16286 9.14437 4.74268 9.61485 5.37658C9.91145 5.77611 10.1615 6.20472 10.4061 6.6374C10.5669 6.92178 10.962 6.94853 11.1752 6.70282C11.3142 6.54231 11.331 6.33586 11.2159 6.11748C11.0472 5.79733 10.8608 5.48736 10.6579 5.18757C10.0868 4.3446 9.43951 3.57374 8.57764 3.00992C8.02341 2.64761 7.42092 2.42546 6.69106 2.42226Z" fill="#0A7C8A"/>
<path d="M9.70632 21.9065C9.70399 21.2909 9.88457 20.7213 10.1457 20.1732C10.2411 19.9728 10.355 19.7812 10.4472 19.5797C10.7022 19.0225 10.6554 18.4776 10.3591 17.9499C10.0244 17.3538 9.78192 16.7265 9.75226 16.0371C9.71941 15.2753 9.96541 14.589 10.3664 13.9516C10.6042 13.573 10.7174 13.1665 10.638 12.7182C10.6045 12.5297 10.5159 12.3663 10.4039 12.2137C10.2379 11.9868 10.269 11.6946 10.4746 11.535C10.7014 11.3588 10.9846 11.3899 11.1698 11.6184C11.5435 12.0799 11.6679 12.6149 11.6278 13.1979C11.5958 13.6614 11.4341 14.0787 11.1925 14.4701C11.0064 14.7716 10.8564 15.0874 10.7793 15.4378C10.6578 15.9909 10.7688 16.509 10.9814 17.0179C11.0992 17.2997 11.2733 17.5529 11.3853 17.8376C11.72 18.6876 11.6295 19.5006 11.1846 20.2869C10.9538 20.6948 10.7761 21.1223 10.7046 21.591C10.6211 22.1371 10.7488 22.6276 11.0675 23.0731C11.1631 23.2072 11.2765 23.3299 11.2678 23.5148C11.2579 23.7224 11.1442 23.8946 10.9509 23.9675C10.7639 24.0382 10.5499 23.9853 10.4179 23.8253C9.9593 23.2685 9.70429 22.6349 9.70632 21.9065Z" fill="#0A7C8A"/>
<path d="M1.88025 21.9781C1.87414 21.1854 2.11258 20.5259 2.45745 19.901C2.65925 19.5355 2.80842 19.1621 2.77876 18.7356C2.75462 18.3864 2.60516 18.0834 2.44116 17.7833C2.14282 17.2369 1.94945 16.6559 1.92154 16.031C1.89537 15.444 2.03872 14.8894 2.30391 14.3675C2.41034 14.1581 2.54235 13.9616 2.64558 13.751C2.84738 13.3402 2.9131 12.9156 2.7302 12.4765C2.69123 12.3832 2.63628 12.2998 2.57667 12.2192C2.40394 11.9845 2.43942 11.6865 2.66012 11.5225C2.88169 11.3579 3.16898 11.3986 3.34432 11.6237C3.80405 12.2137 3.89302 12.8793 3.73688 13.5914C3.66505 13.9182 3.5217 14.216 3.3452 14.4989C3.03057 15.0031 2.84447 15.5428 2.91019 16.1473C2.96137 16.6196 3.14223 17.047 3.37049 17.4576C3.89244 18.3968 3.88779 19.3331 3.36119 20.27C3.12973 20.6821 2.9445 21.113 2.87355 21.5855C2.78661 22.1653 2.92938 22.6838 3.28937 23.1429C3.40539 23.2909 3.48041 23.4471 3.42283 23.6381C3.36497 23.8297 3.23383 23.9519 3.03842 23.9891C2.82761 24.0292 2.66157 23.9367 2.5377 23.7733C2.12218 23.2235 1.86542 22.6157 1.88025 21.9781Z" fill="#0A7C8A"/>
<path d="M7.09573 21.9048C7.09777 21.2156 7.32022 20.5876 7.6299 19.9839C7.74882 19.7522 7.88491 19.53 7.94888 19.2712C8.06403 18.8051 7.98494 18.3718 7.75551 17.9604C7.46677 17.4425 7.24519 16.9031 7.1693 16.309C7.10678 15.8191 7.16319 15.3445 7.31149 14.8767C7.43914 14.4739 7.67322 14.125 7.86368 13.754C8.08177 13.3288 8.14079 12.8845 7.93056 12.4335C7.8977 12.3632 7.85321 12.2971 7.80756 12.2338C7.63484 11.9953 7.65897 11.6941 7.86688 11.5309C8.09194 11.3542 8.39377 11.3978 8.58045 11.6412C8.92154 12.086 9.05384 12.5917 9.02244 13.1486C8.99278 13.6786 8.78923 14.1416 8.51561 14.5859C8.24024 15.0331 8.08526 15.5201 8.1216 16.0526C8.15184 16.4943 8.29404 16.9057 8.50456 17.2913C8.72323 17.6917 8.90642 18.0999 8.9605 18.5608C9.02477 19.1087 8.91281 19.6196 8.66943 20.1049C8.51532 20.4122 8.34376 20.7106 8.23094 21.0374C8.02187 21.6419 7.9861 22.2383 8.29956 22.8222C8.36789 22.9493 8.45077 23.0665 8.53771 23.1813C8.71945 23.4203 8.69648 23.7129 8.4845 23.8818C8.25071 24.0682 7.9672 24.0327 7.77267 23.7856C7.33853 23.2339 7.09254 22.614 7.09573 21.9048Z" fill="#0A7C8A"/>
<path d="M6.41956 12.981C6.41403 13.5201 6.26661 14.0023 5.98775 14.4428C5.68534 14.9205 5.48238 15.43 5.50797 16.004C5.53123 16.5245 5.72227 16.9964 5.97408 17.446C6.50185 18.3878 6.5004 19.3282 5.97205 20.27C5.74931 20.6669 5.57194 21.0819 5.49168 21.534C5.38467 22.1377 5.53501 22.6745 5.9072 23.1528C6.0334 23.315 6.09534 23.4846 6.01712 23.6864C5.8854 24.0254 5.43498 24.1118 5.20236 23.8315C4.68884 23.2124 4.43877 22.5046 4.49576 21.6922C4.5449 20.992 4.8037 20.3654 5.13897 19.7635C5.47714 19.156 5.47656 18.5518 5.13635 17.9464C4.8037 17.3544 4.56584 16.7309 4.53414 16.0453C4.49896 15.2866 4.74031 14.6042 5.13635 13.9691C5.27854 13.7411 5.37915 13.4992 5.42509 13.2326C5.48936 12.8595 5.4091 12.5239 5.18782 12.2189C5.01946 11.9872 5.05144 11.692 5.2608 11.5289C5.47976 11.3582 5.77315 11.394 5.95664 11.6246C6.27591 12.0247 6.41636 12.4882 6.41956 12.981Z" fill="#0A7C8A"/>
<path d="M5.76988 9.81909C5.77569 9.96215 5.79343 10.1075 5.73905 10.2454C5.65531 10.4576 5.42065 10.5992 5.22147 10.5623C4.96325 10.5143 4.79257 10.3198 4.79547 10.0607C4.79838 9.78943 4.78035 9.52104 4.72947 9.25468C4.70591 9.13256 4.66375 9.02729 4.56808 8.93773C4.38926 8.77025 4.37879 8.48935 4.5297 8.29395C4.67567 8.10523 4.94086 8.05493 5.15342 8.17589C5.43635 8.33698 5.5611 8.60857 5.646 8.90139C5.73295 9.20002 5.76086 9.50883 5.76988 9.81909Z" fill="#0A7C8A"/>
<path d="M7.74089 9.8217C7.76328 9.44253 7.7912 9.06509 7.93543 8.70743C8.02208 8.49284 8.14217 8.30529 8.34688 8.18403C8.55595 8.06016 8.80282 8.09534 8.96595 8.27185C9.12152 8.44021 9.1503 8.73012 8.98136 8.89324C8.79759 9.07091 8.78014 9.28841 8.74525 9.50911C8.71704 9.68591 8.71879 9.86503 8.71966 10.0439C8.72111 10.3311 8.51582 10.5556 8.24481 10.5667C7.98195 10.5774 7.7566 10.3562 7.74148 10.07C7.7374 9.98745 7.74089 9.90457 7.74089 9.8217Z" fill="#0A7C8A"/>
<path d="M7.24509 9.35185C7.24509 9.58273 7.24684 9.81361 7.24451 10.0445C7.2416 10.3425 7.03195 10.5667 6.7592 10.5673C6.48616 10.5682 6.27185 10.3431 6.2704 10.0468C6.26778 9.57633 6.26778 9.10614 6.26953 8.63566C6.27069 8.37279 6.403 8.19251 6.63446 8.12679C6.83684 8.06922 7.04707 8.155 7.1756 8.34604C7.23753 8.43764 7.24364 8.54203 7.24451 8.64671C7.24655 8.88137 7.24509 9.11661 7.24509 9.35185Z" fill="#0A7C8A"/>
<path d="M4.29131 10.3443C4.29858 10.697 4.10143 10.9214 3.82838 10.9348C3.56319 10.9476 3.33929 10.731 3.31545 10.4478C3.29044 10.1494 3.21862 9.8665 3.04095 9.61556C2.88888 9.40096 2.94005 9.09884 3.14185 8.94851C3.36023 8.78596 3.6481 8.81766 3.81821 9.03342C4.13516 9.43498 4.24769 9.90953 4.29131 10.3443Z" fill="#0A7C8A"/>
<path d="M9.22284 10.3413C9.26878 9.91039 9.37782 9.42973 9.70291 9.02729C9.8736 8.81589 10.1493 8.78769 10.3697 8.94733C10.5755 9.0962 10.6293 9.39309 10.4755 9.61176C10.2961 9.86677 10.2246 10.1546 10.1946 10.4559C10.1661 10.7438 9.9495 10.9499 9.6782 10.9345C9.41243 10.9194 9.21586 10.694 9.22284 10.3413Z" fill="#0A7C8A"/>
</svg>
