<svg width="30" height="20" viewBox="0 0 30 20" fill="none" xmlns="http://www.w3.org/2000/svg">
<path d="M8.45899 0.000658781C9.397 -0.0095737 10.2449 0.100877 11.0918 0.228783C11.9242 0.354281 12.7417 0.559232 13.5725 0.688642C14.1748 0.782239 14.781 0.822868 15.3945 0.746727C16.0936 0.659751 16.7912 0.539669 17.5009 0.565251C18.4262 0.598958 19.3017 0.813539 20.1019 1.28333C20.4576 1.49219 20.6234 1.82324 20.59 2.23134C20.5578 2.62138 20.3487 2.90277 19.9911 3.07431C19.8608 3.13691 19.7197 3.14745 19.5806 3.16761C19.4361 3.18868 19.2932 3.21546 19.1557 3.26392C18.9201 3.34698 18.8879 3.43456 19.013 3.64854C19.1502 3.88358 19.3181 4.09726 19.4838 4.31214C20.4015 5.50242 21.3146 6.69661 22.1224 7.96424C22.8224 9.06242 23.3649 10.2386 23.8163 11.4568C24.0342 12.0452 24.2279 12.6417 24.3982 13.2451C24.4228 13.3327 24.4817 13.3953 24.5339 13.4618C25.1856 14.2933 25.9248 15.0367 26.8161 15.6175C27.2532 15.9025 27.7019 16.1698 28.105 16.5032C28.8314 17.1045 29.4638 17.785 29.8942 18.6295C30.0839 19.0015 30.012 19.4162 29.7303 19.7078C29.4537 19.994 29.0439 20.0738 28.6614 19.9302C28.0361 19.6955 27.4077 19.4664 26.7569 19.3105C26.3993 19.2251 26.0335 19.1754 25.6856 19.0487C25.3641 18.9316 25.0554 18.7902 24.7637 18.6129C24.7066 18.5783 24.6614 18.5567 24.5931 18.6006C24.1966 18.8555 23.7556 18.9371 23.2896 18.919C23.149 18.9136 23.0067 18.8958 22.8679 18.9319C22.6648 18.9849 22.5213 19.1158 22.3935 19.2765C21.98 19.7957 21.2241 19.7731 20.8374 19.2335C20.7433 19.1026 20.6798 18.9548 20.6762 18.7944C20.6598 18.0535 20.8034 17.3501 21.2008 16.7112C21.348 16.4746 21.5341 16.2709 21.7542 16.0994C21.9794 15.9239 22.0328 15.6774 22.0516 15.4144C22.0556 15.3611 22.0204 15.3325 21.9882 15.3012C20.9005 14.2256 19.7528 13.2177 18.534 12.2902C17.7031 11.6579 16.8416 11.0698 15.9433 10.535C14.7661 9.83437 13.5306 9.25262 12.2411 8.79006C11.9712 8.69315 11.8707 8.54056 11.8471 8.28596C11.8246 8.04339 11.8507 7.80894 11.9348 7.58052C12.004 7.39242 11.9424 7.2281 11.7788 7.16038C11.616 7.09327 11.4512 7.16791 11.3784 7.35751C11.1917 7.84415 11.1777 8.33501 11.3686 8.82436C11.5025 9.16806 11.4706 9.49218 11.2399 9.7814C11.0041 10.0772 10.6887 10.2076 10.3101 10.1356C9.65655 10.0113 9.10831 9.68149 8.61441 9.25262C8.11839 8.82196 7.7271 8.29709 7.29148 7.81195C7.20072 7.71113 7.10601 7.61302 7.00705 7.52033C6.83493 7.35871 6.63306 7.26482 6.39628 7.21456C5.21906 6.96446 4.02696 6.88832 2.82728 6.8829C2.29058 6.8805 1.75236 6.89223 1.22447 6.76072C0.627054 6.61204 0.222404 6.26023 0.0572651 5.66674C-0.102106 5.09403 0.080943 4.60798 0.484986 4.19327C0.845012 3.82369 1.29398 3.58383 1.75327 3.36143C1.93723 3.27234 2.12089 3.18296 2.30606 3.09658C2.36708 3.06829 2.40715 3.02676 2.43751 2.96717C3.11263 1.6508 4.19635 0.815044 5.59669 0.373542C6.27515 0.159563 6.98155 0.0722858 7.69188 0.023832C7.97329 0.00487182 8.2553 -0.00174886 8.45899 0.000658781ZM5.68867 3.006C5.34139 3.00479 5.06394 3.27896 5.06545 3.62235C5.06697 3.96635 5.34291 4.2363 5.69262 4.2357C6.0405 4.2354 6.31917 3.96003 6.31735 3.61844C6.31523 3.27656 6.03898 3.0075 5.68867 3.006Z" fill="#0A7C8A"/>
</svg>
