<svg width="21" height="19" viewBox="0 0 21 19" fill="none" xmlns="http://www.w3.org/2000/svg">
<path d="M10.4962 18.9978C7.78471 18.9978 5.07347 18.9937 2.36194 19C1.3717 19.0022 0.419678 18.3387 0.118335 17.3668C0.0446738 17.1291 0.0061687 16.8712 0.00561066 16.6225C-0.00108584 12.3547 -0.00136445 8.08674 0.00254184 3.81902C0.00365792 2.64814 0.780173 1.72382 1.94843 1.48441C2.10469 1.45249 2.26847 1.44589 2.42891 1.44506C3.21407 1.44148 3.99952 1.44148 4.78468 1.44616C4.89322 1.44671 4.92754 1.4192 4.92503 1.31023C4.91805 1.01689 4.91945 0.723272 4.92447 0.429933C4.9281 0.215295 5.08268 0.0405575 5.28469 0.00671068C5.49563 -0.028512 5.69931 0.0771561 5.77548 0.271156C5.79864 0.330044 5.80534 0.398013 5.80618 0.461854C5.8098 0.743085 5.81204 1.02432 5.80673 1.30555C5.80478 1.41149 5.83994 1.44699 5.94876 1.44671C7.27132 1.44396 8.59387 1.44396 9.91671 1.44699C10.0269 1.44726 10.0582 1.41122 10.0557 1.30555C10.0492 1.02432 10.0529 0.743085 10.0537 0.461854C10.0545 0.191354 10.244 -0.000994322 10.5063 0.000656742C10.761 0.00230781 10.9402 0.19163 10.9413 0.46323C10.9427 0.744461 10.9452 1.02569 10.9404 1.30692C10.9385 1.41287 10.975 1.44726 11.0841 1.44699C12.4025 1.44369 13.7212 1.44396 15.0395 1.44671C15.1506 1.44699 15.1924 1.41754 15.1894 1.30197C15.1818 1.02101 15.1857 0.739507 15.1874 0.458276C15.1891 0.191905 15.376 0.000381414 15.6302 0.000931768C15.8878 0.00148212 16.0686 0.186952 16.0711 0.458001C16.0739 0.739232 16.0778 1.02074 16.0708 1.30169C16.068 1.41809 16.1129 1.44726 16.2226 1.44671C17.0326 1.44369 17.8431 1.42855 18.6529 1.44946C19.6333 1.47506 20.3415 1.94616 20.777 2.81022C20.9355 3.12447 20.9989 3.46266 20.9986 3.81489C20.9972 8.1071 21.0061 12.3996 20.9913 16.6918C20.988 17.6624 20.4821 18.3619 19.6007 18.7889C19.2854 18.9417 18.9469 19.0003 18.5929 18.9997C15.8942 18.9959 13.1952 18.9978 10.4962 18.9978ZM10.5071 5.88615C7.4404 5.88615 4.37396 5.88615 1.30724 5.88615C1.14597 5.88615 0.984695 5.88092 0.8237 5.8878C0.627828 5.89605 0.490828 5.99925 0.41354 6.17398C0.334019 6.35367 0.373361 6.53502 0.504221 6.6704C0.640663 6.81157 0.813376 6.82285 0.995019 6.82285C7.31819 6.82175 13.6416 6.82175 19.9648 6.82147C20.0226 6.82147 20.0834 6.83248 20.1378 6.819C20.2399 6.79368 20.3515 6.77304 20.4358 6.71663C20.6088 6.60051 20.6666 6.39027 20.6027 6.20728C20.5321 6.00585 20.356 5.8856 20.1283 5.8856C16.9213 5.88587 13.7142 5.88587 10.5071 5.88615ZM8.90833 14.9021C8.87373 14.8704 8.84611 14.8467 8.82016 14.8214C8.42869 14.4356 8.03751 14.0496 7.64604 13.6638C7.29252 13.3154 6.94012 12.9662 6.58464 12.6197C6.40914 12.4486 6.17365 12.4307 5.9747 12.5664C5.79446 12.6894 5.72108 12.9296 5.82152 13.1307C5.86533 13.2188 5.94345 13.2928 6.01544 13.3641C6.86004 14.2006 7.70575 15.0363 8.55314 15.8704C8.78361 16.0972 9.04031 16.093 9.2719 15.863C9.84221 15.2964 10.412 14.7292 10.9809 14.1613C11.8749 13.2692 12.7677 12.3759 13.6612 11.4833C14.1285 11.0166 14.5965 10.5501 15.0635 10.0832C15.1754 9.97115 15.2466 9.84099 15.2203 9.67809C15.1883 9.47969 15.0789 9.34402 14.8785 9.28596C14.6751 9.22707 14.5167 9.30357 14.3771 9.44337C13.847 9.97446 13.3169 10.5053 12.7856 11.0353C12.2225 11.5972 11.6584 12.158 11.0953 12.7196C10.369 13.4436 9.64383 14.1682 8.90833 14.9021Z" fill="#0A7C8A"/>
</svg>
