<svg width="21" height="21" viewBox="0 0 21 21" fill="none" xmlns="http://www.w3.org/2000/svg">
<path d="M0.000233452 13.5962C-0.00531612 13.3381 0.0877658 13.0014 0.312776 12.7239C0.527696 12.4588 0.775408 12.2194 1.01681 11.977C2.0952 10.8946 3.17636 9.81491 4.25701 8.73476C5.11291 7.87912 5.97006 7.02449 6.82596 6.16884C7.76737 5.22768 8.70752 4.28526 9.64918 3.34436C10.6148 2.37924 11.5736 1.4068 12.5506 0.453283C13.1535 -0.134972 14.1416 -0.151873 14.7732 0.409643C15.1682 0.76078 15.5307 1.14875 15.9066 1.52132C16.2047 1.81697 16.4928 2.12295 16.8001 2.40875C17.0939 2.68194 17.0828 3.13726 16.8409 3.38346C16.6119 3.61654 16.6326 3.94498 16.8561 4.16519C17.0677 4.37381 17.3749 4.3675 17.6239 4.16065C17.7036 4.09456 17.797 4.03427 17.8943 4.00249C18.1466 3.92 18.3713 3.9866 18.5583 4.17301C19.0103 4.62455 19.4621 5.07633 19.9114 5.53064C20.1611 5.78315 20.432 6.02052 20.6469 6.30052C21.0631 6.84312 21.0997 7.44449 20.818 8.06427C20.6999 8.32384 20.4948 8.51505 20.2968 8.71231C19.5529 9.45343 18.8108 10.1966 18.0686 10.9392C17.0354 11.9732 16.0029 13.0079 14.9692 14.0414C13.7354 15.2747 12.5001 16.5064 11.2661 17.7392C10.331 18.6735 9.39844 19.6104 8.46132 20.5427C7.93184 21.0695 7.04088 21.1638 6.42362 20.7456C6.2039 20.5967 6.00967 20.4065 5.81947 20.2191C5.26703 19.6752 4.72343 19.1221 4.17427 18.5749C3.89629 18.2977 3.88115 17.9266 4.14854 17.635C4.30116 17.4688 4.34606 17.2806 4.27719 17.07C4.20883 16.8614 4.05824 16.7388 3.84205 16.7027C3.67758 16.6752 3.52649 16.71 3.39985 16.824C3.28911 16.9239 3.17182 17.0049 3.01819 17.0309C2.80353 17.0672 2.61938 17.012 2.46727 16.8621C2.03895 16.4401 1.6139 16.0145 1.1881 15.59C0.952491 15.3549 0.714363 15.1223 0.484056 14.8824C0.16773 14.5525 -0.000271055 14.1595 0.000233452 13.5962ZM17.0135 11.5691C17.2582 11.5595 17.4047 11.4785 17.4859 11.3136C17.5659 11.1508 17.544 10.9828 17.4209 10.8486C17.2501 10.6625 17.0695 10.4854 16.8866 10.3108C16.7862 10.215 16.6593 10.1766 16.5201 10.2077C16.1677 10.2866 16.0453 10.6824 16.2933 10.9465C16.4456 11.109 16.598 11.2724 16.7632 11.421C16.8462 11.4957 16.9582 11.5376 17.0135 11.5691ZM13.1204 7.57541C13.2763 7.56254 13.4103 7.48359 13.4877 7.33223C13.5705 7.17054 13.5586 7.00128 13.4358 6.86683C13.2554 6.66931 13.0647 6.48037 12.8669 6.30001C12.7057 6.1532 12.4381 6.186 12.2852 6.35349C12.1359 6.5172 12.1349 6.78484 12.2852 6.93922C12.4431 7.10117 12.6028 7.2616 12.7622 7.42204C12.8568 7.51663 12.9698 7.57061 13.1204 7.57541ZM10.4811 4.9106C10.641 4.90026 10.7692 4.80415 10.8431 4.63287C10.914 4.46916 10.8698 4.28526 10.722 4.13744C10.5699 3.98559 10.4158 3.83575 10.2617 3.68566C10.0755 3.50429 9.81541 3.50328 9.63581 3.68238C9.46529 3.85215 9.46882 4.11853 9.64741 4.30141C9.8028 4.46058 9.96525 4.61319 10.1179 4.77489C10.2109 4.87428 10.3229 4.90909 10.4811 4.9106ZM12.2267 5.79198C12.1821 5.6999 12.1546 5.59269 12.0892 5.51904C11.9296 5.33868 11.757 5.1684 11.5809 5.00368C11.3862 4.82156 11.142 4.83467 10.9574 5.02437C10.7964 5.18959 10.8053 5.45597 10.9793 5.63533C11.137 5.79752 11.2906 5.96401 11.4563 6.11713C11.589 6.23973 11.7499 6.28664 11.927 6.20971C12.1031 6.13302 12.1959 5.99832 12.2267 5.79198ZM13.9224 7.53934C13.7766 7.54564 13.6466 7.61148 13.5695 7.7482C13.4754 7.91519 13.4625 8.09429 13.6 8.24438C13.7811 8.4419 13.9695 8.63462 14.1688 8.81347C14.2881 8.92042 14.4428 8.93808 14.5949 8.86795C14.9049 8.72518 14.9556 8.3642 14.7028 8.118C14.5568 7.97573 14.4135 7.83018 14.2684 7.68665C14.1761 7.59508 14.0669 7.54186 13.9224 7.53934ZM15.2669 8.87476C15.0837 8.8793 14.947 8.96583 14.8741 9.13131C14.7977 9.30486 14.8206 9.47311 14.9573 9.61311C15.1208 9.78061 15.2853 9.94735 15.4548 10.1088C15.6369 10.2821 15.896 10.2733 16.0726 10.0957C16.2385 9.92843 16.2365 9.66457 16.0627 9.48547C15.9048 9.32302 15.7414 9.16612 15.5824 9.00493C15.4949 8.91613 15.3922 8.87098 15.2669 8.87476Z" fill="#D83E41"/>
</svg>
