<svg width="24" height="24" viewBox="0 0 24 24" fill="none" xmlns="http://www.w3.org/2000/svg">
<path d="M17.5627 14.0862C18.7498 14.0862 19.9369 14.0871 21.124 14.0842C21.2071 14.084 21.2356 14.1038 21.2482 14.1902C21.3378 14.8065 21.4349 15.4216 21.5289 16.0371C21.6229 16.6527 21.7182 17.2682 21.808 17.8845C21.8222 17.9829 21.8507 18.0127 21.9536 17.9898C22.2213 17.93 22.4944 17.9131 22.7684 17.9151C22.9491 17.9165 23.084 18.0193 23.1351 18.1853C23.1802 18.3316 23.1233 18.4958 22.9947 18.5931C22.9365 18.6371 22.8689 18.6591 22.7989 18.6573C22.2838 18.6436 21.8004 18.7898 21.3149 18.9365C20.7153 19.1178 20.0993 19.1222 19.4816 19.0642C19.0978 19.0282 18.7333 18.9093 18.3671 18.7967C17.8345 18.6327 17.2918 18.6309 16.7451 18.7129C16.4138 18.7627 16.1067 18.898 15.7831 18.976C15.2984 19.0929 14.8073 19.1085 14.3129 19.084C14.2265 19.0798 14.1407 19.0638 14.0545 19.0602C13.9909 19.0576 13.9809 19.0267 13.98 18.9711C13.9658 18.0445 13.9505 17.1176 13.934 16.1909C13.922 15.5209 13.9105 14.8507 13.8922 14.1809C13.8898 14.0925 13.9196 14.0851 13.9913 14.0851C15.1818 14.0867 16.3722 14.0862 17.5627 14.0862Z" fill="#0A7C8A"/>
<path d="M9.95531 16.5749C9.94153 17.3682 9.92597 18.1613 9.9162 18.9547C9.91508 19.0491 9.88264 19.0691 9.79597 19.0751C9.23086 19.1145 8.66975 19.104 8.11864 18.9569C7.92908 18.9065 7.74308 18.8427 7.55442 18.7882C7.03286 18.638 6.50464 18.6316 5.97086 18.71C5.62908 18.7602 5.31397 18.9045 4.97953 18.9787C4.33353 19.122 3.68508 19.1293 3.03308 19.0245C2.71886 18.974 2.42175 18.8633 2.11864 18.7742C1.82819 18.6889 1.52953 18.6585 1.22975 18.662C0.977083 18.6651 0.823083 18.4762 0.821306 18.2876C0.819306 18.0689 0.998861 17.912 1.24197 17.9138C1.52931 17.9158 1.81464 17.9427 2.09597 18C2.16042 18.0131 2.16508 17.9936 2.17286 17.942C2.27775 17.2509 2.38486 16.56 2.49131 15.8691C2.57842 15.3029 2.66664 14.7371 2.75086 14.1705C2.76086 14.1029 2.78553 14.0847 2.85153 14.0849C5.20575 14.0865 7.55997 14.0867 9.9142 14.084C9.99908 14.084 10.0022 14.1185 10.0006 14.1847C9.9842 14.9813 9.96997 15.7782 9.95531 16.5749Z" fill="#0A7C8A"/>
<path d="M13.2384 18.8749C13.0179 18.8116 12.8077 18.7371 12.5866 18.7053C12.1813 18.6469 11.7768 18.6462 11.3719 18.7073C11.1535 18.7402 10.9444 18.8076 10.7364 18.878C10.6733 18.8993 10.6448 18.9047 10.6468 18.8169C10.6628 18.1336 10.6733 17.4502 10.6857 16.7669C10.705 15.7033 10.7246 14.64 10.7442 13.5764C10.7644 12.4829 10.7846 11.3896 10.805 10.296C10.8162 9.70267 10.8284 9.10934 10.8377 8.51578C10.8384 8.46734 10.853 8.43645 10.8913 8.40734C11.1133 8.23667 11.3655 8.13978 11.6397 8.09734C12.1382 8.01978 12.5924 8.12445 12.9964 8.43267C13.0435 8.46867 13.0604 8.50756 13.0613 8.56712C13.0813 9.84401 13.1037 11.1209 13.1255 12.3976C13.1393 13.2042 13.1515 14.0111 13.1668 14.8178C13.1897 16.0311 13.2148 17.2447 13.2382 18.458C13.2408 18.5942 13.2384 18.7304 13.2384 18.8749Z" fill="#0A7C8A"/>
<path d="M9.63926 8.85266C9.53615 8.58555 9.44215 8.33333 9.34193 8.08355C9.21171 7.75911 9.37504 7.51 9.72238 7.50977C9.85238 7.50955 9.9826 7.50933 10.1126 7.51C10.1519 7.51022 10.1802 7.51022 10.183 7.45444C10.2193 6.77044 10.6095 6.354 11.2135 6.10266C11.2899 6.07088 11.3704 6.04355 11.4517 6.03C11.5248 6.01777 11.5406 5.986 11.5402 5.91755C11.539 5.72533 11.6346 5.59133 11.8019 5.53577C12.0235 5.462 12.2593 5.61622 12.2815 5.84955C12.2968 6.01066 12.2975 6.00844 12.4513 6.05111C12.8757 6.16911 13.2168 6.40377 13.4508 6.78155C13.5704 6.97466 13.6404 7.18622 13.6386 7.41466C13.6379 7.49666 13.6662 7.51444 13.7406 7.51177C13.877 7.50688 14.0142 7.50666 14.1508 7.51111C14.4373 7.52022 14.6028 7.76622 14.5024 8.034C14.417 8.26133 14.3266 8.48688 14.239 8.71333C14.2306 8.73488 14.2282 8.75933 14.2175 8.77955C14.1864 8.83822 14.2073 8.85333 14.2675 8.85244C14.4275 8.85022 14.5877 8.85222 14.7477 8.85222C15.0813 8.852 15.4146 8.85155 15.7482 8.85155C15.9959 8.85155 16.133 8.96888 16.1646 9.21533C16.2239 9.678 16.2784 10.1411 16.3384 10.6038C16.3484 10.6804 16.3202 10.6907 16.2533 10.6904C15.4728 10.6884 14.6926 10.6882 13.9122 10.6902C13.8477 10.6904 13.8255 10.6747 13.8253 10.6076C13.8242 10.2909 13.8188 9.974 13.8126 9.65733C13.8117 9.61044 13.831 9.59733 13.8717 9.58333C14.0615 9.51822 14.1433 9.40133 14.1399 9.19955C14.1306 8.64088 13.8808 8.19844 13.4533 7.85955C12.8204 7.35755 12.0955 7.23822 11.3206 7.41266C10.8117 7.52711 10.3844 7.788 10.0633 8.20666C9.84193 8.49533 9.72371 8.82266 9.71349 9.18733C9.70749 9.40333 9.8106 9.54044 10.0222 9.58955C10.0755 9.602 10.0826 9.62577 10.0817 9.67133C10.075 9.98466 10.0686 10.298 10.0657 10.6116C10.0653 10.672 10.0488 10.6909 9.98638 10.6909C9.23593 10.6887 8.48571 10.6887 7.73526 10.6904C7.66904 10.6907 7.65015 10.6751 7.65904 10.6058C7.72082 10.1267 7.77615 9.64666 7.83815 9.16777C7.86349 8.972 8.01682 8.85244 8.22482 8.85266C8.64837 8.85311 9.07193 8.85288 9.49549 8.85311C9.53815 8.85266 9.58149 8.85266 9.63926 8.85266Z" fill="#0A7C8A"/>
<path d="M7.66094 13.3513C6.91049 13.3513 6.16005 13.3502 5.4096 13.3531C5.33249 13.3533 5.3156 13.3371 5.3256 13.2587C5.39805 12.6938 5.46538 12.1282 5.53405 11.5627C5.55049 11.4269 5.55049 11.4265 5.68827 11.4265C7.11249 11.4262 8.53671 11.4262 9.96071 11.4253C10.0152 11.4253 10.0545 11.4222 10.0527 11.5007C10.0389 12.0773 10.0265 12.6542 10.0225 13.2311C10.0218 13.3378 9.98827 13.3549 9.89205 13.3545C9.14827 13.3507 8.40449 13.3522 7.66071 13.3522C7.66094 13.3518 7.66094 13.3516 7.66094 13.3513Z" fill="#0A7C8A"/>
<path d="M16.1329 13.352C15.4157 13.3518 14.6986 13.3502 13.9815 13.354C13.8957 13.3544 13.8782 13.3289 13.8773 13.248C13.8697 12.6744 13.858 12.1009 13.8442 11.5276C13.8424 11.4542 13.8515 11.4242 13.9382 11.4244C15.3191 11.4276 16.7 11.4273 18.0809 11.4244C18.162 11.4242 18.1871 11.4473 18.196 11.5264C18.2486 11.9933 18.3066 12.4596 18.3631 12.9258C18.3762 13.0349 18.3862 13.1447 18.4051 13.2529C18.4186 13.3318 18.3971 13.3549 18.3149 13.3544C17.6611 13.3511 17.0073 13.3524 16.3535 13.3522C16.2795 13.352 16.2062 13.352 16.1329 13.352Z" fill="#0A7C8A"/>
</svg>
